<svg width="23" height="22" viewBox="0 0 23 22" fill="none" xmlns="http://www.w3.org/2000/svg">
<path d="M11.4551 5.17647H2.39882C1.79836 5.17647 1.22249 5.44916 0.797893 5.93455C0.3733 6.41994 0.134766 7.07826 0.134766 7.76471V12.9412C0.134766 13.6276 0.3733 14.2859 0.797893 14.7713C1.22249 15.2567 1.79836 15.5294 2.39882 15.5294H3.53085V20.7059C3.53085 21.0491 3.65012 21.3783 3.86242 21.621C4.07471 21.8637 4.36265 22 4.66288 22H6.92694C7.22718 22 7.51511 21.8637 7.72741 21.621C7.9397 21.3783 8.05897 21.0491 8.05897 20.7059V15.5294H11.4551L17.1152 20.7059V0L11.4551 5.17647ZM22.2093 10.3529C22.2093 12.5659 21.1226 14.5718 19.3793 15.5294V5.17647C21.1113 6.14706 22.2093 8.15294 22.2093 10.3529Z" fill="#898989"/>
</svg>
