<svg width="21" height="25" viewBox="0 0 21 25" fill="none" xmlns="http://www.w3.org/2000/svg">
<path fill-rule="evenodd" clip-rule="evenodd" d="M9.0743 0.576832C8.7757 0.899392 8.53125 1.53297 8.53125 1.98474C8.53125 2.61415 8.31994 2.85816 7.62891 3.02649C6.24717 3.36348 4.70466 4.66174 3.69863 6.33385C2.83533 7.76902 2.78348 8.08484 2.67783 12.5382L2.56627 17.2307L1.2833 18.4549C0.526969 19.1763 0 19.9817 0 20.4159V21.1524H10.5H21V20.4159C21 19.9792 20.4658 19.1696 19.6875 18.427L18.375 17.1746L18.3606 12.9912C18.3514 10.3437 18.185 8.36636 17.9068 7.60485C17.2062 5.68617 15.7904 4.13397 14.0674 3.3949C12.7657 2.83667 12.4829 2.56798 12.4766 1.88374C12.4609 0.216117 10.2096 -0.648959 9.0743 0.576832ZM12.7903 5.842C15.1364 7.01328 15.5636 8.19162 15.6982 13.8579L15.81 18.5873H10.5H5.18995L5.30184 13.8579C5.397 9.85251 5.51742 8.93229 6.08934 7.84597C6.82172 6.45505 8.98111 5.12057 10.5 5.12057C10.965 5.12057 11.9956 5.44505 12.7903 5.842ZM7.875 23.0528C7.875 23.9339 9.41358 25 10.6844 25C11.4607 25 11.9562 24.7621 12.4448 24.1551C13.6513 22.6565 13.401 22.4349 10.5 22.4349C8.12667 22.4349 7.875 22.4942 7.875 23.0528Z" fill="#A78FC2"/>
</svg>
