<svg width="21" height="22" viewBox="0 0 21 22" fill="none" xmlns="http://www.w3.org/2000/svg">
<path fill-rule="evenodd" clip-rule="evenodd" d="M6.93602 0.489867C4.10009 1.38351 2.06972 3.07454 0.635141 5.73763C0.0930531 6.74406 -0.000529474 7.28518 2.24512e-06 9.40978C0.000268105 11.634 0.0808234 12.0524 0.748929 13.3065C2.42092 16.444 5.74523 18.534 9.46407 18.7856L11.5628 18.9275V20.4637C11.5628 21.3086 11.6322 22 11.7172 22C12.2383 22 15.191 19.7592 16.9089 18.06C18.4012 16.5838 19.203 15.5176 19.9663 13.9939C20.9503 12.0293 21.0008 11.8066 21 9.42342C20.9992 6.76583 20.6658 5.77304 19.0869 3.72687C16.7026 0.637016 11.1573 -0.840237 6.93602 0.489867ZM7.30902 9.40978V10.459H6.24558H5.18214V9.40978V8.36059H6.24558H7.30902V9.40978ZM11.5628 9.40978V10.459H10.4993H9.43589V9.40978V8.36059H10.4993H11.5628V9.40978ZM15.8165 9.40978V10.459H14.7531H13.6896V9.40978V8.36059H14.7531H15.8165V9.40978Z" fill="#A78FC2"/>
</svg>
