<svg width="23" height="23" viewBox="0 0 23 23" fill="none" xmlns="http://www.w3.org/2000/svg">
<path fill-rule="evenodd" clip-rule="evenodd" d="M5.32291 0.65587C-0.565497 3.31574 -1.84036 10.8776 2.87042 15.202C4.83791 17.0082 6.66375 17.6402 9.35608 17.4475C10.8961 17.3375 11.9374 17.057 12.9874 16.4703C14.6413 15.546 15.0165 15.6138 15.0165 16.8378C15.0165 17.5029 15.8202 18.4857 18.7689 21.4267L20.3962 23L21.6981 21.6981L23 20.3962L21.4268 18.7687C18.4859 15.8199 17.5031 15.0163 16.838 15.0163C15.6141 15.0163 15.5462 14.641 16.4706 12.9871C17.5822 10.998 17.8339 7.80339 17.0425 5.73046C16.3005 3.78793 14.2898 1.64715 12.3586 0.74374C10.3117 -0.213452 7.33011 -0.250977 5.32291 0.65587ZM10.4127 2.83949C11.752 3.2113 13.5897 4.70009 14.2238 5.92684C16.1304 9.61333 13.8527 14.0722 9.66158 14.8587C6.58495 15.4356 3.29037 12.9877 2.66623 9.66117C2.18749 7.10855 4.14248 3.89331 6.73005 2.97802C8.25351 2.43892 8.88516 2.41515 10.4127 2.83949Z" fill="black" fill-opacity="0.2"/>
</svg>
