<svg width="19" height="20" viewBox="0 0 19 20" fill="none" xmlns="http://www.w3.org/2000/svg">
<path fill-rule="evenodd" clip-rule="evenodd" d="M7.91891 0.722059C7.46804 1.17706 7.20386 1.78 7.20386 2.35294C7.20386 2.92588 7.46804 3.52882 7.91891 3.98382C9.36357 5.44294 11.8641 4.40912 11.8641 2.35294C11.8641 1.14382 10.7313 0 9.53396 0C8.96658 0 8.36949 0.266765 7.91891 0.722059ZM5.93395 6.76794C5.13793 7.47382 4.83356 8.07176 4.4357 9.71029L3.93676 11.7668L2.29346 12.2271C1.38996 12.4803 0.476272 12.7444 0.263067 12.8141C-0.0113022 12.9038 -0.0660597 13.2191 0.075494 13.8968C0.361514 15.2685 0.546466 15.365 2.13647 14.9718C4.32618 14.4303 5.60803 13.6665 6.13318 12.5906L6.60794 11.6176L6.61463 12.8076C6.62075 13.9126 6.47541 14.1297 4.58249 15.8412C3.14744 17.1385 2.54365 17.8903 2.54365 18.38C2.54365 19.4488 3.29395 20 4.74881 20H6.03881V18.6974C6.03881 17.9056 6.21823 17.2138 6.49638 16.9326C7.06551 16.3582 8.88619 16.3409 10.8446 16.8912L12.301 17.3003L10.8446 17.33C10.0437 17.3462 8.89697 17.4415 8.29609 17.5418C7.25337 17.7159 7.20386 17.7756 7.20386 18.8621V20H11.4065C15.9228 20 16.5295 19.8144 16.5199 18.435C16.5141 17.5994 16.4139 17.4741 14.267 15.61C12.58 14.145 12.4472 13.9412 12.4533 12.8235L12.46 11.6176L12.9385 12.5988C13.2018 13.1385 13.6906 13.7574 14.0244 13.9741C14.9011 14.5438 18.3088 15.3744 18.5925 15.0879C18.725 14.9541 18.871 14.3929 18.9167 13.8409L19 12.8374L17.1115 12.3747L15.2226 11.9118L14.6357 9.75235C14.1883 8.10765 13.8219 7.38941 13.0973 6.73765C12.1976 5.92853 12.0053 5.88235 9.5395 5.88235C7.05648 5.88235 6.88551 5.92441 5.93395 6.76794Z" fill="white"/>
</svg>
