<svg width="18" height="18" viewBox="0 0 18 18" fill="none" xmlns="http://www.w3.org/2000/svg">
<path fill-rule="evenodd" clip-rule="evenodd" d="M6.33099 0.285876C3.95818 1.05562 1.69177 3.0673 0.610633 5.36338C0.0694937 6.51233 0 6.93213 0 9.04632C0 11.2775 0.0478482 11.5291 0.736861 12.922C1.63618 14.7405 3.46922 16.536 5.29678 17.3886C6.46018 17.9313 6.87737 18 9.00478 18C11.2464 18 11.499 17.9524 12.8985 17.2665C14.7254 16.3714 16.5292 14.5468 17.3857 12.7277C17.931 11.5697 18 11.1544 18 9.0368C18 6.80558 17.9522 6.55406 17.2631 5.16108C16.3602 3.33515 14.5214 1.5387 12.7032 0.705222C11.119 -0.0207517 7.92433 -0.230992 6.33099 0.285876ZM10.5949 3.1054C10.9082 3.33038 11.3573 3.90032 11.5927 4.37229C11.957 5.10257 11.9818 5.35976 11.7595 6.09866C11.24 7.8248 9.42129 8.71974 7.93139 7.98242C5.58296 6.82032 5.55357 4.05908 7.87694 2.85253C8.76805 2.38964 9.72159 2.47831 10.5949 3.1054ZM11.0834 11.1832C12.7071 11.5257 14.1958 12.1836 14.6907 12.7771C14.9559 13.0953 14.878 13.2652 14.1058 14.0522C12.6818 15.5041 11.0998 16.1557 9 16.1557C6.90015 16.1557 5.3182 15.5041 3.89415 14.0522C3.12197 13.2652 3.04405 13.0953 3.30927 12.7771C3.78934 12.2013 5.28949 11.5227 6.81015 11.1934C8.62656 10.8001 9.26089 10.7985 11.0834 11.1832Z" fill="#8361AE"/>
</svg>
