<svg width="16" height="18" viewBox="0 0 16 18" fill="none" xmlns="http://www.w3.org/2000/svg">
<path fill-rule="evenodd" clip-rule="evenodd" d="M2.66667 0.9C2.66667 1.78087 2.64978 1.8 1.87889 1.8C1.33867 1.8 0.919556 1.9737 0.545556 2.35238L0 2.90453V9.9V16.8955L0.545556 17.4476L1.09089 18H8H14.9091L15.4544 17.4476L16 16.8955V9.9V2.90453L15.4544 2.35238C15.0804 1.9737 14.6613 1.8 14.1211 1.8C13.3502 1.8 13.3333 1.78087 13.3333 0.9V0H12.4444H11.5556V0.9V1.8H8H4.44444V0.9V0H3.55556H2.66667V0.9ZM14.2222 11.25V16.2H8H1.77778V11.25V6.3H8H14.2222V11.25ZM8.88889 12.6V14.4H10.6667H12.4444V12.6V10.8H10.6667H8.88889V12.6Z" fill="#8361AE"/>
</svg>
