<svg width="21" height="21" viewBox="0 0 21 21" fill="none" xmlns="http://www.w3.org/2000/svg">
<path fill-rule="evenodd" clip-rule="evenodd" d="M8.14392 0.688164C5.04058 2.77685 5.04058 6.5965 8.14392 8.68519C11.0057 10.6116 15.1667 8.24269 15.1667 4.68668C15.1667 1.13066 11.0057 -1.23826 8.14392 0.688164ZM4.97262 13.7385C2.89479 14.4694 1.05467 15.5849 0.478917 16.4626C0.158083 16.9514 0 17.8215 0 19.0963V21H10.5H21V19.0963C21 17.8215 20.8419 16.9514 20.5211 16.4626C19.9357 15.57 17.9002 14.3482 15.9314 13.7071L14.4652 13.2296L13.2119 14.1123C11.4476 15.3541 9.54567 15.3495 7.76883 14.0986L6.49629 13.2025L4.97262 13.7385Z" fill="#A78FC2"/>
</svg>
